<mxfile host="app.diagrams.net" modified="2023-11-21T20:33:54.889Z" agent="Mozilla/5.0 (Windows NT 10.0; Win64; x64) AppleWebKit/537.36 (KHTML, like Gecko) Chrome/118.0.0.0 Safari/537.36 OPR/104.0.0.0" etag="ObLd3J-q32IuICesyLXn" version="22.1.3" type="device">
  <diagram name="Página-1" id="B_xZ9c1FqQ2-Rpz66tSA">
    <mxGraphModel dx="832" dy="1623" grid="1" gridSize="10" guides="1" tooltips="1" connect="1" arrows="1" fold="1" page="1" pageScale="1" pageWidth="827" pageHeight="1169" math="0" shadow="0">
      <root>
        <mxCell id="0" />
        <mxCell id="1" parent="0" />
        <mxCell id="SGoVYt2XiLz_K0Uo1mRc-10" style="rounded=0;orthogonalLoop=1;jettySize=auto;html=1;exitX=1;exitY=0.3333333333333333;exitDx=0;exitDy=0;exitPerimeter=0;entryX=0;entryY=0.5;entryDx=0;entryDy=0;endArrow=none;endFill=0;" edge="1" parent="1" source="SGoVYt2XiLz_K0Uo1mRc-1" target="SGoVYt2XiLz_K0Uo1mRc-7">
          <mxGeometry relative="1" as="geometry" />
        </mxCell>
        <mxCell id="SGoVYt2XiLz_K0Uo1mRc-27" style="rounded=0;orthogonalLoop=1;jettySize=auto;html=1;exitX=1;exitY=0.3333333333333333;exitDx=0;exitDy=0;exitPerimeter=0;entryX=0;entryY=0.5;entryDx=0;entryDy=0;endArrow=none;endFill=0;" edge="1" parent="1" source="SGoVYt2XiLz_K0Uo1mRc-1" target="SGoVYt2XiLz_K0Uo1mRc-26">
          <mxGeometry relative="1" as="geometry" />
        </mxCell>
        <mxCell id="SGoVYt2XiLz_K0Uo1mRc-32" style="rounded=0;orthogonalLoop=1;jettySize=auto;html=1;exitX=1;exitY=0.3333333333333333;exitDx=0;exitDy=0;exitPerimeter=0;entryX=0;entryY=0.5;entryDx=0;entryDy=0;endArrow=none;endFill=0;" edge="1" parent="1" source="SGoVYt2XiLz_K0Uo1mRc-1" target="SGoVYt2XiLz_K0Uo1mRc-31">
          <mxGeometry relative="1" as="geometry" />
        </mxCell>
        <mxCell id="SGoVYt2XiLz_K0Uo1mRc-36" style="rounded=0;orthogonalLoop=1;jettySize=auto;html=1;exitX=1;exitY=0.3333333333333333;exitDx=0;exitDy=0;exitPerimeter=0;entryX=0;entryY=0;entryDx=0;entryDy=0;endArrow=none;endFill=0;" edge="1" parent="1" source="SGoVYt2XiLz_K0Uo1mRc-1" target="SGoVYt2XiLz_K0Uo1mRc-34">
          <mxGeometry relative="1" as="geometry" />
        </mxCell>
        <mxCell id="SGoVYt2XiLz_K0Uo1mRc-1" value="Musicista" style="shape=umlActor;verticalLabelPosition=bottom;verticalAlign=top;html=1;" vertex="1" parent="1">
          <mxGeometry x="90" y="210" width="30" height="60" as="geometry" />
        </mxCell>
        <mxCell id="SGoVYt2XiLz_K0Uo1mRc-28" style="rounded=0;orthogonalLoop=1;jettySize=auto;html=1;exitX=0;exitY=0.3333333333333333;exitDx=0;exitDy=0;exitPerimeter=0;entryX=1;entryY=0.5;entryDx=0;entryDy=0;endArrow=none;endFill=0;" edge="1" parent="1" source="SGoVYt2XiLz_K0Uo1mRc-2" target="SGoVYt2XiLz_K0Uo1mRc-26">
          <mxGeometry relative="1" as="geometry" />
        </mxCell>
        <mxCell id="SGoVYt2XiLz_K0Uo1mRc-33" style="rounded=0;orthogonalLoop=1;jettySize=auto;html=1;exitX=0;exitY=0.3333333333333333;exitDx=0;exitDy=0;exitPerimeter=0;entryX=1;entryY=0.5;entryDx=0;entryDy=0;endArrow=none;endFill=0;" edge="1" parent="1" source="SGoVYt2XiLz_K0Uo1mRc-2" target="SGoVYt2XiLz_K0Uo1mRc-31">
          <mxGeometry relative="1" as="geometry" />
        </mxCell>
        <mxCell id="SGoVYt2XiLz_K0Uo1mRc-39" style="rounded=0;orthogonalLoop=1;jettySize=auto;html=1;exitX=0;exitY=1;exitDx=0;exitDy=0;exitPerimeter=0;entryX=1;entryY=0.5;entryDx=0;entryDy=0;endArrow=none;endFill=0;" edge="1" parent="1" source="SGoVYt2XiLz_K0Uo1mRc-2" target="SGoVYt2XiLz_K0Uo1mRc-34">
          <mxGeometry relative="1" as="geometry" />
        </mxCell>
        <mxCell id="SGoVYt2XiLz_K0Uo1mRc-44" style="rounded=0;orthogonalLoop=1;jettySize=auto;html=1;exitX=0;exitY=1;exitDx=0;exitDy=0;exitPerimeter=0;entryX=1;entryY=0.5;entryDx=0;entryDy=0;endArrow=none;endFill=0;" edge="1" parent="1" source="SGoVYt2XiLz_K0Uo1mRc-2" target="SGoVYt2XiLz_K0Uo1mRc-42">
          <mxGeometry relative="1" as="geometry" />
        </mxCell>
        <mxCell id="SGoVYt2XiLz_K0Uo1mRc-48" style="rounded=0;orthogonalLoop=1;jettySize=auto;html=1;exitX=0;exitY=1;exitDx=0;exitDy=0;exitPerimeter=0;entryX=1;entryY=0.5;entryDx=0;entryDy=0;endArrow=none;endFill=0;" edge="1" parent="1" source="SGoVYt2XiLz_K0Uo1mRc-2" target="SGoVYt2XiLz_K0Uo1mRc-45">
          <mxGeometry relative="1" as="geometry" />
        </mxCell>
        <mxCell id="SGoVYt2XiLz_K0Uo1mRc-51" style="rounded=0;orthogonalLoop=1;jettySize=auto;html=1;exitX=0;exitY=1;exitDx=0;exitDy=0;exitPerimeter=0;entryX=1;entryY=0.5;entryDx=0;entryDy=0;endArrow=none;endFill=0;" edge="1" parent="1" source="SGoVYt2XiLz_K0Uo1mRc-2" target="SGoVYt2XiLz_K0Uo1mRc-49">
          <mxGeometry relative="1" as="geometry" />
        </mxCell>
        <mxCell id="SGoVYt2XiLz_K0Uo1mRc-2" value="Sistema" style="shape=umlActor;verticalLabelPosition=bottom;verticalAlign=top;html=1;" vertex="1" parent="1">
          <mxGeometry x="740" y="210" width="30" height="60" as="geometry" />
        </mxCell>
        <mxCell id="SGoVYt2XiLz_K0Uo1mRc-5" value="" style="rounded=0;whiteSpace=wrap;html=1;fillColor=none;" vertex="1" parent="1">
          <mxGeometry x="155" y="-130" width="570" height="1030" as="geometry" />
        </mxCell>
        <mxCell id="SGoVYt2XiLz_K0Uo1mRc-6" value="Sistema ECAD" style="text;html=1;strokeColor=none;fillColor=none;align=center;verticalAlign=middle;whiteSpace=wrap;rounded=0;" vertex="1" parent="1">
          <mxGeometry x="355" y="-10" width="90" height="30" as="geometry" />
        </mxCell>
        <mxCell id="SGoVYt2XiLz_K0Uo1mRc-11" style="rounded=0;orthogonalLoop=1;jettySize=auto;html=1;dashed=1;" edge="1" parent="1" source="SGoVYt2XiLz_K0Uo1mRc-13" target="SGoVYt2XiLz_K0Uo1mRc-8">
          <mxGeometry relative="1" as="geometry" />
        </mxCell>
        <mxCell id="SGoVYt2XiLz_K0Uo1mRc-7" value="Fazer Login" style="ellipse;whiteSpace=wrap;html=1;" vertex="1" parent="1">
          <mxGeometry x="240" y="50" width="120" height="60" as="geometry" />
        </mxCell>
        <mxCell id="SGoVYt2XiLz_K0Uo1mRc-8" value="Verificar Senha" style="ellipse;whiteSpace=wrap;html=1;" vertex="1" parent="1">
          <mxGeometry x="490" y="30" width="120" height="60" as="geometry" />
        </mxCell>
        <mxCell id="SGoVYt2XiLz_K0Uo1mRc-9" value="Exibir Erro de Login" style="ellipse;whiteSpace=wrap;html=1;" vertex="1" parent="1">
          <mxGeometry x="490" y="110" width="120" height="60" as="geometry" />
        </mxCell>
        <mxCell id="SGoVYt2XiLz_K0Uo1mRc-12" style="rounded=0;orthogonalLoop=1;jettySize=auto;html=1;exitX=0;exitY=0.5;exitDx=0;exitDy=0;entryX=0.976;entryY=0.658;entryDx=0;entryDy=0;entryPerimeter=0;dashed=1;" edge="1" parent="1" source="SGoVYt2XiLz_K0Uo1mRc-15" target="SGoVYt2XiLz_K0Uo1mRc-7">
          <mxGeometry relative="1" as="geometry" />
        </mxCell>
        <mxCell id="SGoVYt2XiLz_K0Uo1mRc-14" value="" style="rounded=0;orthogonalLoop=1;jettySize=auto;html=1;exitX=1;exitY=0;exitDx=0;exitDy=0;dashed=1;" edge="1" parent="1" source="SGoVYt2XiLz_K0Uo1mRc-7" target="SGoVYt2XiLz_K0Uo1mRc-13">
          <mxGeometry relative="1" as="geometry">
            <mxPoint x="351" y="109" as="sourcePoint" />
            <mxPoint x="490" y="90" as="targetPoint" />
          </mxGeometry>
        </mxCell>
        <mxCell id="SGoVYt2XiLz_K0Uo1mRc-13" value="&amp;lt;&amp;lt;incluir&amp;gt;&amp;gt;" style="text;html=1;strokeColor=none;fillColor=none;align=center;verticalAlign=middle;whiteSpace=wrap;rounded=0;" vertex="1" parent="1">
          <mxGeometry x="385" y="45" width="60" height="30" as="geometry" />
        </mxCell>
        <mxCell id="SGoVYt2XiLz_K0Uo1mRc-16" value="" style="rounded=0;orthogonalLoop=1;jettySize=auto;html=1;exitX=0;exitY=0.5;exitDx=0;exitDy=0;entryX=0.976;entryY=0.658;entryDx=0;entryDy=0;entryPerimeter=0;dashed=1;" edge="1" parent="1" source="SGoVYt2XiLz_K0Uo1mRc-9" target="SGoVYt2XiLz_K0Uo1mRc-15">
          <mxGeometry relative="1" as="geometry">
            <mxPoint x="490" y="180" as="sourcePoint" />
            <mxPoint x="366" y="139" as="targetPoint" />
          </mxGeometry>
        </mxCell>
        <mxCell id="SGoVYt2XiLz_K0Uo1mRc-15" value="&amp;lt;&amp;lt;estender&amp;gt;&amp;gt;" style="text;html=1;strokeColor=none;fillColor=none;align=center;verticalAlign=middle;whiteSpace=wrap;rounded=0;" vertex="1" parent="1">
          <mxGeometry x="385" y="120" width="60" height="30" as="geometry" />
        </mxCell>
        <mxCell id="SGoVYt2XiLz_K0Uo1mRc-23" style="rounded=0;orthogonalLoop=1;jettySize=auto;html=1;exitX=1;exitY=0.3333333333333333;exitDx=0;exitDy=0;exitPerimeter=0;entryX=0;entryY=1;entryDx=0;entryDy=0;endArrow=none;endFill=0;" edge="1" parent="1" source="SGoVYt2XiLz_K0Uo1mRc-17" target="SGoVYt2XiLz_K0Uo1mRc-7">
          <mxGeometry relative="1" as="geometry">
            <mxPoint x="250" y="130" as="targetPoint" />
          </mxGeometry>
        </mxCell>
        <mxCell id="SGoVYt2XiLz_K0Uo1mRc-37" style="rounded=0;orthogonalLoop=1;jettySize=auto;html=1;exitX=1;exitY=0.3333333333333333;exitDx=0;exitDy=0;exitPerimeter=0;entryX=0;entryY=0.5;entryDx=0;entryDy=0;endArrow=none;endFill=0;" edge="1" parent="1" source="SGoVYt2XiLz_K0Uo1mRc-17" target="SGoVYt2XiLz_K0Uo1mRc-34">
          <mxGeometry relative="1" as="geometry" />
        </mxCell>
        <mxCell id="SGoVYt2XiLz_K0Uo1mRc-50" style="rounded=0;orthogonalLoop=1;jettySize=auto;html=1;exitX=1;exitY=1;exitDx=0;exitDy=0;exitPerimeter=0;entryX=0;entryY=0.5;entryDx=0;entryDy=0;endArrow=none;endFill=0;" edge="1" parent="1" source="SGoVYt2XiLz_K0Uo1mRc-17" target="SGoVYt2XiLz_K0Uo1mRc-49">
          <mxGeometry relative="1" as="geometry" />
        </mxCell>
        <mxCell id="SGoVYt2XiLz_K0Uo1mRc-17" value="Associação" style="shape=umlActor;verticalLabelPosition=bottom;verticalAlign=top;html=1;" vertex="1" parent="1">
          <mxGeometry x="90" y="330" width="30" height="60" as="geometry" />
        </mxCell>
        <mxCell id="SGoVYt2XiLz_K0Uo1mRc-22" style="rounded=0;orthogonalLoop=1;jettySize=auto;html=1;exitX=1;exitY=0.3333333333333333;exitDx=0;exitDy=0;exitPerimeter=0;entryX=0;entryY=0.5;entryDx=0;entryDy=0;endArrow=none;endFill=0;" edge="1" parent="1" source="SGoVYt2XiLz_K0Uo1mRc-18" target="SGoVYt2XiLz_K0Uo1mRc-7">
          <mxGeometry relative="1" as="geometry" />
        </mxCell>
        <mxCell id="SGoVYt2XiLz_K0Uo1mRc-43" style="rounded=0;orthogonalLoop=1;jettySize=auto;html=1;exitX=1;exitY=1;exitDx=0;exitDy=0;exitPerimeter=0;entryX=0;entryY=0.5;entryDx=0;entryDy=0;endArrow=none;endFill=0;" edge="1" parent="1" source="SGoVYt2XiLz_K0Uo1mRc-18" target="SGoVYt2XiLz_K0Uo1mRc-42">
          <mxGeometry relative="1" as="geometry" />
        </mxCell>
        <mxCell id="SGoVYt2XiLz_K0Uo1mRc-46" style="rounded=0;orthogonalLoop=1;jettySize=auto;html=1;exitX=1;exitY=1;exitDx=0;exitDy=0;exitPerimeter=0;entryX=0;entryY=0.5;entryDx=0;entryDy=0;endArrow=none;endFill=0;" edge="1" parent="1" source="SGoVYt2XiLz_K0Uo1mRc-18" target="SGoVYt2XiLz_K0Uo1mRc-45">
          <mxGeometry relative="1" as="geometry" />
        </mxCell>
        <mxCell id="SGoVYt2XiLz_K0Uo1mRc-18" value="Estabelecimento" style="shape=umlActor;verticalLabelPosition=bottom;verticalAlign=top;html=1;" vertex="1" parent="1">
          <mxGeometry x="90" y="470" width="30" height="60" as="geometry" />
        </mxCell>
        <mxCell id="SGoVYt2XiLz_K0Uo1mRc-29" style="rounded=0;orthogonalLoop=1;jettySize=auto;html=1;exitX=0;exitY=0.5;exitDx=0;exitDy=0;entryX=1;entryY=1;entryDx=0;entryDy=0;dashed=1;" edge="1" parent="1" source="SGoVYt2XiLz_K0Uo1mRc-30" target="SGoVYt2XiLz_K0Uo1mRc-26">
          <mxGeometry relative="1" as="geometry" />
        </mxCell>
        <mxCell id="SGoVYt2XiLz_K0Uo1mRc-25" value="Emitir Aviso de Não Exclusividade" style="ellipse;whiteSpace=wrap;html=1;" vertex="1" parent="1">
          <mxGeometry x="510" y="250" width="120" height="60" as="geometry" />
        </mxCell>
        <mxCell id="SGoVYt2XiLz_K0Uo1mRc-26" value="Cadastrar Música" style="ellipse;whiteSpace=wrap;html=1;" vertex="1" parent="1">
          <mxGeometry x="294" y="170" width="120" height="60" as="geometry" />
        </mxCell>
        <mxCell id="SGoVYt2XiLz_K0Uo1mRc-31" value="Gerar Relatório de Recebimento" style="ellipse;whiteSpace=wrap;html=1;" vertex="1" parent="1">
          <mxGeometry x="380" y="380" width="120" height="60" as="geometry" />
        </mxCell>
        <mxCell id="SGoVYt2XiLz_K0Uo1mRc-34" value="Acompanhar Rendimentos em Série Histórica&amp;nbsp;&amp;nbsp;" style="ellipse;whiteSpace=wrap;html=1;" vertex="1" parent="1">
          <mxGeometry x="265" y="450" width="120" height="60" as="geometry" />
        </mxCell>
        <mxCell id="SGoVYt2XiLz_K0Uo1mRc-40" value="" style="rounded=0;orthogonalLoop=1;jettySize=auto;html=1;exitX=0;exitY=0.5;exitDx=0;exitDy=0;entryX=1;entryY=0.5;entryDx=0;entryDy=0;dashed=1;" edge="1" parent="1" source="SGoVYt2XiLz_K0Uo1mRc-25" target="SGoVYt2XiLz_K0Uo1mRc-30">
          <mxGeometry relative="1" as="geometry">
            <mxPoint x="414" y="285" as="sourcePoint" />
            <mxPoint x="396" y="221" as="targetPoint" />
          </mxGeometry>
        </mxCell>
        <mxCell id="SGoVYt2XiLz_K0Uo1mRc-30" value="&amp;lt;&amp;lt;estender&amp;gt;&amp;gt;" style="text;html=1;strokeColor=none;fillColor=none;align=center;verticalAlign=middle;whiteSpace=wrap;rounded=0;" vertex="1" parent="1">
          <mxGeometry x="414" y="250" width="60" height="30" as="geometry" />
        </mxCell>
        <mxCell id="SGoVYt2XiLz_K0Uo1mRc-42" value="Enviar Músicas Usadas no Mês" style="ellipse;whiteSpace=wrap;html=1;" vertex="1" parent="1">
          <mxGeometry x="285" y="630" width="120" height="60" as="geometry" />
        </mxCell>
        <mxCell id="SGoVYt2XiLz_K0Uo1mRc-45" value="Notificar Atraso no Pagamento" style="ellipse;whiteSpace=wrap;html=1;" vertex="1" parent="1">
          <mxGeometry x="285" y="740" width="120" height="60" as="geometry" />
        </mxCell>
        <mxCell id="SGoVYt2XiLz_K0Uo1mRc-49" value="Acompanhar Fluxo de Turnover dos Artistas" style="ellipse;whiteSpace=wrap;html=1;" vertex="1" parent="1">
          <mxGeometry x="285" y="540" width="120" height="60" as="geometry" />
        </mxCell>
      </root>
    </mxGraphModel>
  </diagram>
</mxfile>
